<svg width="154" height="154" viewBox="0 0 154 154" fill="none" xmlns="http://www.w3.org/2000/svg">
<rect width="154" height="154" fill="#1A1D1F"/>
<path d="M77 137.4V73H105.244C109.292 73 112.972 73.8893 116.284 75.668C119.596 77.3853 122.233 79.8387 124.196 83.028C126.159 86.156 127.14 89.836 127.14 94.068C127.14 98.3613 126.036 102.164 123.828 105.476C121.681 108.727 118.768 111.149 115.088 112.744L121.988 126.728C122.479 127.709 123 128.445 123.552 128.936C124.165 129.365 125.024 129.58 126.128 129.58H130.728V137.4H124.748C122.356 137.4 120.24 136.787 118.4 135.56C116.621 134.333 115.149 132.677 113.984 130.592L106.256 114.86C105.643 114.921 104.968 114.983 104.232 115.044C103.557 115.044 102.852 115.044 102.116 115.044H85.832V137.4H77ZM85.832 107.224H104.048C106.685 107.224 109.077 106.703 111.224 105.66C113.432 104.617 115.149 103.115 116.376 101.152C117.664 99.1893 118.308 96.828 118.308 94.068C118.308 91.2467 117.664 88.8547 116.376 86.892C115.088 84.9293 113.371 83.4267 111.224 82.384C109.077 81.3413 106.716 80.82 104.14 80.82H85.832V107.224Z" fill="white" fill-opacity="0.1"/>
<path d="M47 107.4V43H75.244C79.292 43 82.972 43.8893 86.284 45.668C89.596 47.3853 92.2333 49.8387 94.196 53.028C96.1587 56.156 97.14 59.836 97.14 64.068C97.14 68.3613 96.036 72.164 93.828 75.476C91.6813 78.7267 88.768 81.1493 85.088 82.744L91.988 96.728C92.4787 97.7093 93 98.4453 93.552 98.936C94.1653 99.3653 95.024 99.58 96.128 99.58H100.728V107.4H94.748C92.356 107.4 90.24 106.787 88.4 105.56C86.6213 104.333 85.1493 102.677 83.984 100.592L76.256 84.86C75.6427 84.9213 74.968 84.9827 74.232 85.044C73.5573 85.044 72.852 85.044 72.116 85.044H55.832V107.4H47ZM55.832 77.224H74.048C76.6853 77.224 79.0773 76.7027 81.224 75.66C83.432 74.6173 85.1493 73.1147 86.376 71.152C87.664 69.1893 88.308 66.828 88.308 64.068C88.308 61.2467 87.664 58.8547 86.376 56.892C85.088 54.9293 83.3707 53.4267 81.224 52.384C79.0773 51.3413 76.716 50.82 74.14 50.82H55.832V77.224Z" fill="white" fill-opacity="0.5"/>
<path d="M26 123V25H69.1062C75.2842 25 80.9007 26.3533 85.9555 29.06C91.0103 31.6733 95.0354 35.4067 98.0308 40.26C101.026 45.02 102.524 50.62 102.524 57.06C102.524 63.5933 100.839 69.38 97.4692 74.42C94.1929 79.3667 89.7466 83.0533 84.1301 85.48L94.661 106.76C95.4098 108.253 96.2055 109.373 97.0479 110.12C97.984 110.773 99.2945 111.1 100.979 111.1H108V123H98.8733C95.2226 123 91.9932 122.067 89.1849 120.2C86.4703 118.333 84.2237 115.813 82.4452 112.64L70.6507 88.7C69.7146 88.7933 68.6849 88.8867 67.5616 88.98C66.532 88.98 65.4555 88.98 64.3322 88.98H39.4795V123H26ZM39.4795 77.08H67.2808C71.3059 77.08 74.9566 76.2867 78.2329 74.7C81.6027 73.1133 84.2237 70.8267 86.0959 67.84C88.0616 64.8533 89.0445 61.26 89.0445 57.06C89.0445 52.7667 88.0616 49.1267 86.0959 46.14C84.1301 43.1533 81.5091 40.8667 78.2329 39.28C74.9566 37.6933 71.3527 36.9 67.4212 36.9H39.4795V77.08Z" fill="white"/>
</svg>
