<svg width="20" height="20" viewBox="0 0 20 20" fill="none" xmlns="http://www.w3.org/2000/svg">
<g clip-path="url(#clip0)">
<path d="M4.54419 6.65372H0.247345V19.5572H4.54419V6.65372Z" fill="white"/>
<path d="M18.6458 7.83237C17.7432 6.84709 16.5494 6.35436 15.0651 6.35436C14.5183 6.35436 14.0212 6.42163 13.574 6.55626C13.1271 6.6908 12.7495 6.87956 12.4413 7.12265C12.1332 7.36573 11.8878 7.59139 11.7057 7.79963C11.5325 7.99742 11.3631 8.22782 11.1978 8.48846V6.65363H6.91379L6.92692 7.27871C6.93572 7.69551 6.94006 8.98014 6.94006 11.1328C6.94006 13.2857 6.93139 16.0937 6.91397 19.5573H11.1978V12.3567C11.1978 11.914 11.2453 11.5626 11.341 11.3019C11.5234 10.859 11.7987 10.4882 12.1679 10.1888C12.537 9.88908 12.9947 9.73935 13.5417 9.73935C14.2881 9.73935 14.8373 9.99758 15.1889 10.5141C15.5404 11.0305 15.7162 11.7445 15.7162 12.656V19.5569H20V12.1615C19.9997 10.2603 19.5486 8.81733 18.6458 7.83237Z" fill="white"/>
<path d="M2.42183 0.442741C1.70143 0.442741 1.11772 0.653397 0.670549 1.0743C0.223425 1.49529 0 2.02678 0 2.66929C0 3.3028 0.216995 3.83247 0.65103 4.25771C1.08493 4.68299 1.65793 4.89574 2.3697 4.89574H2.39574C3.12499 4.89574 3.71317 4.68317 4.16016 4.25771C4.60715 3.83247 4.82629 3.30299 4.81767 2.66929C4.809 2.02683 4.58749 1.49529 4.15359 1.0743C3.71974 0.653214 3.14227 0.442741 2.42183 0.442741Z" fill="white"/>
</g>
<defs>
<clipPath id="clip0">
<rect width="20" height="20" fill="white"/>
</clipPath>
</defs>
</svg>
