<svg width="20" height="20" viewBox="0 0 20 20" fill="none" xmlns="http://www.w3.org/2000/svg">
<g clip-path="url(#clip0)">
<path d="M20 3.79928C19.2639 4.12545 18.474 4.34666 17.6442 4.44542C18.4915 3.938 19.1402 3.13316 19.4476 2.17709C18.6527 2.64699 17.7754 2.9882 16.8405 3.17316C16.0919 2.37457 15.0271 1.87715 13.8461 1.87715C11.5803 1.87715 9.74311 3.71431 9.74311 5.97888C9.74311 6.30006 9.77936 6.61375 9.84936 6.91372C6.44001 6.74248 3.41683 5.10905 1.39347 2.62699C1.03977 3.23189 0.838563 3.93673 0.838563 4.68911C0.838563 6.11261 1.56343 7.36862 2.66324 8.10346C1.99085 8.08098 1.35847 7.89601 0.804837 7.58856V7.6398C0.804837 9.62692 2.21958 11.2854 4.09546 11.6628C3.75177 11.7553 3.38935 11.8065 3.01441 11.8065C2.74948 11.8065 2.49327 11.7803 2.24206 11.7303C2.76445 13.3612 4.27919 14.5472 6.07386 14.5798C4.67036 15.6796 2.90069 16.3332 0.978563 16.3332C0.647386 16.3332 0.321177 16.3132 0 16.277C1.81592 17.443 3.97177 18.1229 6.28883 18.1229C13.8362 18.1229 17.9617 11.8715 17.9617 6.45006L17.9479 5.91892C18.754 5.34398 19.4513 4.62163 20 3.79928Z" fill="white"/>
</g>
<defs>
<clipPath id="clip0">
<rect width="20" height="20" fill="white"/>
</clipPath>
</defs>
</svg>
